<?xml version="1.0" standalone="no"?>
<!DOCTYPE svg PUBLIC "-//W3C//DTD SVG 20010904//EN"
 "http://www.w3.org/TR/2001/REC-SVG-20010904/DTD/svg10.dtd">
<svg version="1.0" xmlns="http://www.w3.org/2000/svg"
 width="502.000000pt" height="502.000000pt" viewBox="0 0 502.000000 502.000000"
 preserveAspectRatio="xMidYMid meet">
<metadata>
Created by potrace 1.14, written by Peter Selinger 2001-2017
</metadata>
<g transform="translate(0.000000,502.000000) scale(0.100000,-0.100000)"
fill="#000000" stroke="none">
<path d="M2457 5014 c-1 -1 -54 -4 -117 -8 -63 -3 -126 -8 -140 -10 -14 -2
-47 -7 -75 -11 -92 -12 -370 -84 -480 -125 -595 -221 -1092 -665 -1374 -1230
-114 -228 -203 -505 -236 -730 -2 -14 -8 -54 -14 -90 -10 -68 -8 -547 2 -614
21 -134 33 -195 63 -311 30 -114 83 -275 96 -290 4 -5 8 -16 8 -24 0 -26 150
-313 217 -416 101 -154 186 -258 328 -400 72 -72 141 -139 155 -150 14 -11 54
-43 90 -71 357 -281 808 -460 1285 -511 138 -15 494 -8 595 12 14 3 50 9 80
15 84 15 102 19 135 27 17 4 32 7 35 8 59 13 93 23 185 52 61 20 115 39 120
42 6 4 37 18 69 31 57 23 221 104 301 150 39 22 225 149 235 160 3 3 25 21 50
40 88 68 230 203 325 310 178 199 352 488 451 749 39 102 87 258 99 324 3 12
8 36 12 52 4 17 7 32 8 35 6 24 19 99 21 115 1 11 5 43 9 70 9 53 10 539 2
590 -3 17 -8 50 -11 75 -6 42 -9 59 -22 120 -3 14 -7 36 -10 50 -3 14 -11 46
-19 73 -8 26 -11 47 -8 47 3 0 0 7 -7 15 -7 8 -10 15 -7 15 7 0 -39 136 -89
260 -77 196 -207 417 -354 605 -112 143 -371 389 -510 485 -19 13 -41 30 -48
37 -7 7 -17 13 -21 13 -5 0 -39 20 -77 45 -94 62 -306 165 -444 215 -109 40
-305 95 -380 106 -19 3 -42 7 -50 10 -26 9 -163 24 -265 30 -117 6 -216 10
-218 8z m1054 -1183 c16 -1 235 -211 292 -279 19 -24 27 -45 27 -73 0 -50 26
-22 -551 -600 l-465 -468 -208 -69 c-198 -66 -211 -69 -250 -58 -53 15 -85 60
-79 111 2 19 30 115 62 213 32 97 60 183 62 190 5 17 918 932 990 992 38 32
65 47 80 45 13 -1 31 -3 40 -4z m-665 -245 c82 -20 100 -147 28 -199 -23 -17
-65 -19 -698 -21 -741 -3 -701 1 -743 -63 -17 -25 -18 -85 -18 -911 0 -816 1
-887 17 -913 24 -40 56 -57 108 -59 25 -1 50 -1 55 0 6 1 15 1 20 0 9 -2 1412
-2 1588 0 71 1 80 4 112 31 18 16 37 44 41 62 4 18 8 325 8 682 2 615 3 652
20 681 24 41 67 54 126 40 79 -19 75 22 75 -771 l0 -700 -28 -57 c-36 -71
-110 -142 -183 -174 l-55 -24 -942 2 -942 3 -45 22 c-64 31 -134 99 -168 164
-37 70 -35 10 -36 1094 l-1 830 24 61 c29 78 102 156 180 193 l56 26 335 3
c184 1 353 3 375 5 72 4 669 -2 691 -7z"/>
</g>
</svg>
